solid OpenSCAD_Model
  facet normal 1 0 0
    outer loop
      vertex 20 10 5
      vertex 20 100 0
      vertex 20 100 5
    endloop
  endfacet
  facet normal 1 0 0
    outer loop
      vertex 20 100 0
      vertex 20 10 5
      vertex 20 10 0
    endloop
  endfacet
  facet normal 0 0 1
    outer loop
      vertex 0 100 5
      vertex 20 10 5
      vertex 20 100 5
    endloop
  endfacet
  facet normal 0 0 1
    outer loop
      vertex 20 10 5
      vertex 0 100 5
      vertex 0 10 5
    endloop
  endfacet
  facet normal 0 0 -1
    outer loop
      vertex 100 0 0
      vertex 80 10 0
      vertex 100 100 0
    endloop
  endfacet
  facet normal 0 0 -1
    outer loop
      vertex 100 0 0
      vertex 20 10 0
      vertex 80 10 0
    endloop
  endfacet
  facet normal 0 0 -1
    outer loop
      vertex 0 0 0
      vertex 20 10 0
      vertex 100 0 0
    endloop
  endfacet
  facet normal 0 0 -1
    outer loop
      vertex 0 100 0
      vertex 20 10 0
      vertex 0 0 0
    endloop
  endfacet
  facet normal 0 0 -1
    outer loop
      vertex 20 10 0
      vertex 0 100 0
      vertex 20 100 0
    endloop
  endfacet
  facet normal 0 0 -1
    outer loop
      vertex 100 100 0
      vertex 80 10 0
      vertex 80 100 0
    endloop
  endfacet
  facet normal -1 0 0
    outer loop
      vertex 0 100 0
      vertex 0 10 5
      vertex 0 100 5
    endloop
  endfacet
  facet normal -1 0 0
    outer loop
      vertex 0 0 0
      vertex 0 10 5
      vertex 0 100 0
    endloop
  endfacet
  facet normal -1 0 0
    outer loop
      vertex 0 0 10
      vertex 0 10 5
      vertex 0 0 0
    endloop
  endfacet
  facet normal -1 0 0
    outer loop
      vertex 0 10 5
      vertex 0 0 10
      vertex 0 10 10
    endloop
  endfacet
  facet normal 0 1 0
    outer loop
      vertex 20 100 0
      vertex 0 100 5
      vertex 20 100 5
    endloop
  endfacet
  facet normal 0 1 0
    outer loop
      vertex 0 100 5
      vertex 20 100 0
      vertex 0 100 0
    endloop
  endfacet
  facet normal 0 -1 0
    outer loop
      vertex 0 0 0
      vertex 100 0 10
      vertex 0 0 10
    endloop
  endfacet
  facet normal 0 -1 0
    outer loop
      vertex 100 0 10
      vertex 0 0 0
      vertex 100 0 0
    endloop
  endfacet
  facet normal 1 0 0
    outer loop
      vertex 100 10 10
      vertex 100 0 10
      vertex 100 10 5
    endloop
  endfacet
  facet normal 1 0 0
    outer loop
      vertex 100 10 5
      vertex 100 100 0
      vertex 100 100 5
    endloop
  endfacet
  facet normal 1 0 0
    outer loop
      vertex 100 10 5
      vertex 100 0 0
      vertex 100 100 0
    endloop
  endfacet
  facet normal 1 0 0
    outer loop
      vertex 100 0 0
      vertex 100 10 5
      vertex 100 0 10
    endloop
  endfacet
  facet normal 0 0 1
    outer loop
      vertex 80 100 5
      vertex 100 10 5
      vertex 100 100 5
    endloop
  endfacet
  facet normal 0 0 1
    outer loop
      vertex 100 10 5
      vertex 80 100 5
      vertex 80 10 5
    endloop
  endfacet
  facet normal -1 0 0
    outer loop
      vertex 80 10 0
      vertex 80 100 5
      vertex 80 100 0
    endloop
  endfacet
  facet normal -1 0 0
    outer loop
      vertex 80 100 5
      vertex 80 10 0
      vertex 80 10 5
    endloop
  endfacet
  facet normal 0 1 0
    outer loop
      vertex 100 100 0
      vertex 80 100 5
      vertex 100 100 5
    endloop
  endfacet
  facet normal 0 1 0
    outer loop
      vertex 80 100 5
      vertex 100 100 0
      vertex 80 100 0
    endloop
  endfacet
  facet normal 0 0 1
    outer loop
      vertex 0 10 10
      vertex 100 0 10
      vertex 100 10 10
    endloop
  endfacet
  facet normal 0 0 1
    outer loop
      vertex 100 0 10
      vertex 0 10 10
      vertex 0 0 10
    endloop
  endfacet
  facet normal 0 1 0
    outer loop
      vertex 80 10 0
      vertex 20 10 5
      vertex 80 10 5
    endloop
  endfacet
  facet normal 0 1 0
    outer loop
      vertex 20 10 5
      vertex 80 10 0
      vertex 20 10 0
    endloop
  endfacet
  facet normal 0 1 0
    outer loop
      vertex 80 10 5
      vertex 100 10 10
      vertex 100 10 5
    endloop
  endfacet
  facet normal 0 1 0
    outer loop
      vertex 100 10 10
      vertex 80 10 5
      vertex 0 10 10
    endloop
  endfacet
  facet normal 0 1 0
    outer loop
      vertex 20 10 5
      vertex 0 10 10
      vertex 80 10 5
    endloop
  endfacet
  facet normal 0 1 0
    outer loop
      vertex 0 10 10
      vertex 20 10 5
      vertex 0 10 5
    endloop
  endfacet
endsolid OpenSCAD_Model
